<svg width="204" height="71" viewBox="0 0 204 71" fill="none" xmlns="http://www.w3.org/2000/svg">
    <g filter="url(#filter0_d_90_11)">
        <rect x="4" width="196" height="63" fill="#D58656" />
        <rect x="8" y="4" width="188" height="55" stroke="#4D1A2A" stroke-width="8" />
    </g>
    <path
        d="M25 21V18.3333H27.6667H30.3333H33H35.6667H38.3333H41H43.6667H46.3333H49H51.6667H54.3333V21H51.6667H49H46.3333H43.6667V23.6667V26.3333H46.3333H49H51.6667H54.3333V29V31.6667V34.3333V37V39.6667V42.3333V45V47.6667H51.6667H49H46.3333H43.6667H41H38.3333H35.6667H33H30.3333H27.6667H25V45V42.3333V39.6667V37V34.3333V31.6667V29V26.3333H27.6667H30.3333H33V23.6667V21H30.3333H27.6667H25ZM38.3333 21H35.6667V23.6667V26.3333H38.3333H41V23.6667V21H38.3333ZM30.3333 29H27.6667V31.6667V34.3333V37H30.3333V34.3333H33V31.6667V29H30.3333ZM38.3333 29H35.6667V31.6667V34.3333H33V37H30.3333V39.6667H27.6667V42.3333V45H30.3333H33H35.6667H38.3333H41H43.6667H46.3333H49H51.6667V42.3333V39.6667V37H49H46.3333H43.6667V34.3333H41V31.6667V29H38.3333ZM46.3333 29H43.6667V31.6667V34.3333H46.3333H49H51.6667V31.6667V29H49H46.3333ZM81.8962 18.3333V15.6667H84.5629V18.3333H81.8962ZM65.8962 26.3333V23.6667H68.5629V21V18.3333H71.2296V21V23.6667H73.8962H76.5629H79.2296H81.8962H84.5629V21V18.3333H87.2296V21V23.6667H89.8962H92.5629H95.2296V26.3333H92.5629H89.8962H87.2296H84.5629H81.8962H79.2296H76.5629H73.8962H71.2296V29V31.6667V34.3333H73.8962V37H71.2296V39.6667V42.3333V45V47.6667H68.5629H65.8962V45H68.5629V42.3333V39.6667H65.8962V37H68.5629V34.3333V31.6667V29V26.3333H65.8962ZM73.8962 47.6667V45H76.5629H79.2296H81.8962H84.5629H87.2296V42.3333V39.6667V37H89.8962V34.3333V31.6667V29H92.5629V31.6667V34.3333V37H89.8962V39.6667V42.3333V45H92.5629H95.2296V47.6667H92.5629H89.8962H87.2296H84.5629H81.8962H79.2296H76.5629H73.8962ZM81.8962 31.6667V34.3333V37V39.6667V42.3333H79.2296V39.6667V37V34.3333V31.6667V29H81.8962V31.6667ZM122.792 18.3333V15.6667H125.459V18.3333H122.792ZM106.792 26.3333V23.6667H109.459V21V18.3333H112.126V21V23.6667H114.792H117.459H120.126H122.792H125.459V21V18.3333H128.126V21V23.6667H130.792H133.459H136.126V26.3333H133.459H130.792H128.126H125.459H122.792H120.126H117.459H114.792H112.126V29V31.6667V34.3333H114.792V37H112.126V39.6667V42.3333V45V47.6667H109.459H106.792V45H109.459V42.3333V39.6667H106.792V37H109.459V34.3333V31.6667V29V26.3333H106.792ZM114.792 47.6667V45H117.459H120.126H122.792H125.459H128.126V42.3333V39.6667V37H130.792V34.3333V31.6667V29H133.459V31.6667V34.3333V37H130.792V39.6667V42.3333V45H133.459H136.126V47.6667H133.459H130.792H128.126H125.459H122.792H120.126H117.459H114.792ZM122.792 31.6667V34.3333V37V39.6667V42.3333H120.126V39.6667V37V34.3333V31.6667V29H122.792V31.6667ZM153.022 26.3333V23.6667H155.689H158.355H161.022H163.689H166.355H169.022H171.689V26.3333H169.022H166.355H163.689V29V31.6667H166.355H169.022V34.3333H166.355H163.689V37V39.6667H166.355H169.022H171.689V42.3333H169.022H166.355H163.689H161.022H158.355H155.689H153.022V39.6667H155.689H158.355H161.022V37V34.3333H158.355H155.689V31.6667H158.355H161.022V29V26.3333H158.355H155.689H153.022ZM150.355 18.3333H153.022H155.689H158.355H161.022H163.689H166.355H169.022H171.689H174.355H177.022V21V23.6667V26.3333V29V31.6667V34.3333V37V39.6667V42.3333V45V47.6667H174.355H171.689H169.022H166.355H163.689H161.022H158.355H155.689H153.022H150.355H147.689V45V42.3333V39.6667V37V34.3333V31.6667V29V26.3333V23.6667V21V18.3333H150.355ZM153.022 21H150.355V23.6667V26.3333V29V31.6667V34.3333V37V39.6667V42.3333V45H153.022H155.689H158.355H161.022H163.689H166.355H169.022H171.689H174.355V42.3333V39.6667V37V34.3333V31.6667V29V26.3333V23.6667V21H171.689H169.022H166.355H163.689H161.022H158.355H155.689H153.022ZM169.022 34.3333H171.689V37H169.022V34.3333Z"
        fill="#46230D" />
    <path
        d="M25 21H24V22H25V21ZM25 18.3333V17.3333H24V18.3333H25ZM54.3333 18.3333H55.3333V17.3333H54.3333V18.3333ZM54.3333 21V22H55.3333V21H54.3333ZM43.6667 21V20H42.6667V21H43.6667ZM43.6667 26.3333H42.6667V27.3333H43.6667V26.3333ZM54.3333 26.3333H55.3333V25.3333H54.3333V26.3333ZM54.3333 47.6667V48.6667H55.3333V47.6667H54.3333ZM25 47.6667H24V48.6667H25V47.6667ZM25 26.3333V25.3333H24V26.3333H25ZM33 26.3333V27.3333H34V26.3333H33ZM33 21H34V20H33V21ZM35.6667 21V20H34.6667V21H35.6667ZM35.6667 26.3333H34.6667V27.3333H35.6667V26.3333ZM41 26.3333V27.3333H42V26.3333H41ZM41 21H42V20H41V21ZM27.6667 29V28H26.6667V29H27.6667ZM27.6667 37H26.6667V38H27.6667V37ZM30.3333 37V38H31.3333V37H30.3333ZM30.3333 34.3333V33.3333H29.3333V34.3333H30.3333ZM33 34.3333V35.3333H34V34.3333H33ZM33 29H34V28H33V29ZM35.6667 29V28H34.6667V29H35.6667ZM35.6667 34.3333V35.3333H36.6667V34.3333H35.6667ZM33 34.3333V33.3333H32V34.3333H33ZM33 37V38H34V37H33ZM30.3333 37V36H29.3333V37H30.3333ZM30.3333 39.6667V40.6667H31.3333V39.6667H30.3333ZM27.6667 39.6667V38.6667H26.6667V39.6667H27.6667ZM27.6667 45H26.6667V46H27.6667V45ZM51.6667 45V46H52.6667V45H51.6667ZM51.6667 37H52.6667V36H51.6667V37ZM43.6667 37H42.6667V38H43.6667V37ZM43.6667 34.3333H44.6667V33.3333H43.6667V34.3333ZM41 34.3333H40V35.3333H41V34.3333ZM41 29H42V28H41V29ZM43.6667 29V28H42.6667V29H43.6667ZM43.6667 34.3333H42.6667V35.3333H43.6667V34.3333ZM51.6667 34.3333V35.3333H52.6667V34.3333H51.6667ZM51.6667 29H52.6667V28H51.6667V29ZM26 21V18.3333H24V21H26ZM25 19.3333H27.6667V17.3333H25V19.3333ZM27.6667 19.3333H30.3333V17.3333H27.6667V19.3333ZM30.3333 19.3333H33V17.3333H30.3333V19.3333ZM33 19.3333H35.6667V17.3333H33V19.3333ZM35.6667 19.3333H38.3333V17.3333H35.6667V19.3333ZM38.3333 19.3333H41V17.3333H38.3333V19.3333ZM41 19.3333H43.6667V17.3333H41V19.3333ZM43.6667 19.3333H46.3333V17.3333H43.6667V19.3333ZM46.3333 19.3333H49V17.3333H46.3333V19.3333ZM49 19.3333H51.6667V17.3333H49V19.3333ZM51.6667 19.3333H54.3333V17.3333H51.6667V19.3333ZM53.3333 18.3333V21H55.3333V18.3333H53.3333ZM54.3333 20H51.6667V22H54.3333V20ZM51.6667 20H49V22H51.6667V20ZM49 20H46.3333V22H49V20ZM46.3333 20H43.6667V22H46.3333V20ZM42.6667 21V23.6667H44.6667V21H42.6667ZM42.6667 23.6667V26.3333H44.6667V23.6667H42.6667ZM43.6667 27.3333H46.3333V25.3333H43.6667V27.3333ZM46.3333 27.3333H49V25.3333H46.3333V27.3333ZM49 27.3333H51.6667V25.3333H49V27.3333ZM51.6667 27.3333H54.3333V25.3333H51.6667V27.3333ZM53.3333 26.3333V29H55.3333V26.3333H53.3333ZM53.3333 29V31.6667H55.3333V29H53.3333ZM53.3333 31.6667V34.3333H55.3333V31.6667H53.3333ZM53.3333 34.3333V37H55.3333V34.3333H53.3333ZM53.3333 37V39.6667H55.3333V37H53.3333ZM53.3333 39.6667V42.3333H55.3333V39.6667H53.3333ZM53.3333 42.3333V45H55.3333V42.3333H53.3333ZM53.3333 45V47.6667H55.3333V45H53.3333ZM54.3333 46.6667H51.6667V48.6667H54.3333V46.6667ZM51.6667 46.6667H49V48.6667H51.6667V46.6667ZM49 46.6667H46.3333V48.6667H49V46.6667ZM46.3333 46.6667H43.6667V48.6667H46.3333V46.6667ZM43.6667 46.6667H41V48.6667H43.6667V46.6667ZM41 46.6667H38.3333V48.6667H41V46.6667ZM38.3333 46.6667H35.6667V48.6667H38.3333V46.6667ZM35.6667 46.6667H33V48.6667H35.6667V46.6667ZM33 46.6667H30.3333V48.6667H33V46.6667ZM30.3333 46.6667H27.6667V48.6667H30.3333V46.6667ZM27.6667 46.6667H25V48.6667H27.6667V46.6667ZM26 47.6667V45H24V47.6667H26ZM26 45V42.3333H24V45H26ZM26 42.3333V39.6667H24V42.3333H26ZM26 39.6667V37H24V39.6667H26ZM26 37V34.3333H24V37H26ZM26 34.3333V31.6667H24V34.3333H26ZM26 31.6667V29H24V31.6667H26ZM26 29V26.3333H24V29H26ZM25 27.3333H27.6667V25.3333H25V27.3333ZM27.6667 27.3333H30.3333V25.3333H27.6667V27.3333ZM30.3333 27.3333H33V25.3333H30.3333V27.3333ZM34 26.3333V23.6667H32V26.3333H34ZM34 23.6667V21H32V23.6667H34ZM33 20H30.3333V22H33V20ZM30.3333 20H27.6667V22H30.3333V20ZM27.6667 20H25V22H27.6667V20ZM38.3333 20H35.6667V22H38.3333V20ZM34.6667 21V23.6667H36.6667V21H34.6667ZM34.6667 23.6667V26.3333H36.6667V23.6667H34.6667ZM35.6667 27.3333H38.3333V25.3333H35.6667V27.3333ZM38.3333 27.3333H41V25.3333H38.3333V27.3333ZM42 26.3333V23.6667H40V26.3333H42ZM42 23.6667V21H40V23.6667H42ZM41 20H38.3333V22H41V20ZM30.3333 28H27.6667V30H30.3333V28ZM26.6667 29V31.6667H28.6667V29H26.6667ZM26.6667 31.6667V34.3333H28.6667V31.6667H26.6667ZM26.6667 34.3333V37H28.6667V34.3333H26.6667ZM27.6667 38H30.3333V36H27.6667V38ZM31.3333 37V34.3333H29.3333V37H31.3333ZM30.3333 35.3333H33V33.3333H30.3333V35.3333ZM34 34.3333V31.6667H32V34.3333H34ZM34 31.6667V29H32V31.6667H34ZM33 28H30.3333V30H33V28ZM38.3333 28H35.6667V30H38.3333V28ZM34.6667 29V31.6667H36.6667V29H34.6667ZM34.6667 31.6667V34.3333H36.6667V31.6667H34.6667ZM35.6667 33.3333H33V35.3333H35.6667V33.3333ZM32 34.3333V37H34V34.3333H32ZM33 36H30.3333V38H33V36ZM29.3333 37V39.6667H31.3333V37H29.3333ZM30.3333 38.6667H27.6667V40.6667H30.3333V38.6667ZM26.6667 39.6667V42.3333H28.6667V39.6667H26.6667ZM26.6667 42.3333V45H28.6667V42.3333H26.6667ZM27.6667 46H30.3333V44H27.6667V46ZM30.3333 46H33V44H30.3333V46ZM33 46H35.6667V44H33V46ZM35.6667 46H38.3333V44H35.6667V46ZM38.3333 46H41V44H38.3333V46ZM41 46H43.6667V44H41V46ZM43.6667 46H46.3333V44H43.6667V46ZM46.3333 46H49V44H46.3333V46ZM49 46H51.6667V44H49V46ZM52.6667 45V42.3333H50.6667V45H52.6667ZM52.6667 42.3333V39.6667H50.6667V42.3333H52.6667ZM52.6667 39.6667V37H50.6667V39.6667H52.6667ZM51.6667 36H49V38H51.6667V36ZM49 36H46.3333V38H49V36ZM46.3333 36H43.6667V38H46.3333V36ZM44.6667 37V34.3333H42.6667V37H44.6667ZM43.6667 33.3333H41V35.3333H43.6667V33.3333ZM42 34.3333V31.6667H40V34.3333H42ZM42 31.6667V29H40V31.6667H42ZM41 28H38.3333V30H41V28ZM46.3333 28H43.6667V30H46.3333V28ZM42.6667 29V31.6667H44.6667V29H42.6667ZM42.6667 31.6667V34.3333H44.6667V31.6667H42.6667ZM43.6667 35.3333H46.3333V33.3333H43.6667V35.3333ZM46.3333 35.3333H49V33.3333H46.3333V35.3333ZM49 35.3333H51.6667V33.3333H49V35.3333ZM52.6667 34.3333V31.6667H50.6667V34.3333H52.6667ZM52.6667 31.6667V29H50.6667V31.6667H52.6667ZM51.6667 28H49V30H51.6667V28ZM49 28H46.3333V30H49V28ZM81.8962 18.3333H80.8962V19.3333H81.8962V18.3333ZM81.8962 15.6667V14.6667H80.8962V15.6667H81.8962ZM84.5629 15.6667H85.5629V14.6667H84.5629V15.6667ZM84.5629 18.3333V19.3333H85.5629V18.3333H84.5629ZM65.8962 26.3333H64.8962V27.3333H65.8962V26.3333ZM65.8962 23.6667V22.6667H64.8962V23.6667H65.8962ZM68.5629 23.6667V24.6667H69.5629V23.6667H68.5629ZM68.5629 18.3333V17.3333H67.5629V18.3333H68.5629ZM71.2296 18.3333H72.2296V17.3333H71.2296V18.3333ZM71.2296 23.6667H70.2296V24.6667H71.2296V23.6667ZM84.5629 23.6667V24.6667H85.5629V23.6667H84.5629ZM84.5629 18.3333V17.3333H83.5629V18.3333H84.5629ZM87.2296 18.3333H88.2296V17.3333H87.2296V18.3333ZM87.2296 23.6667H86.2296V24.6667H87.2296V23.6667ZM95.2296 23.6667H96.2296V22.6667H95.2296V23.6667ZM95.2296 26.3333V27.3333H96.2296V26.3333H95.2296ZM71.2296 26.3333V25.3333H70.2296V26.3333H71.2296ZM71.2296 34.3333H70.2296V35.3333H71.2296V34.3333ZM73.8962 34.3333H74.8962V33.3333H73.8962V34.3333ZM73.8962 37V38H74.8962V37H73.8962ZM71.2296 37V36H70.2296V37H71.2296ZM71.2296 47.6667V48.6667H72.2296V47.6667H71.2296ZM65.8962 47.6667H64.8962V48.6667H65.8962V47.6667ZM65.8962 45V44H64.8962V45H65.8962ZM68.5629 45V46H69.5629V45H68.5629ZM68.5629 39.6667H69.5629V38.6667H68.5629V39.6667ZM65.8962 39.6667H64.8962V40.6667H65.8962V39.6667ZM65.8962 37V36H64.8962V37H65.8962ZM68.5629 37V38H69.5629V37H68.5629ZM68.5629 26.3333H69.5629V25.3333H68.5629V26.3333ZM73.8962 47.6667H72.8962V48.6667H73.8962V47.6667ZM73.8962 45V44H72.8962V45H73.8962ZM87.2296 45V46H88.2296V45H87.2296ZM87.2296 37V36H86.2296V37H87.2296ZM89.8962 37V38H90.8962V37H89.8962ZM89.8962 29V28H88.8962V29H89.8962ZM92.5629 29H93.5629V28H92.5629V29ZM92.5629 37V38H93.5629V37H92.5629ZM89.8962 37V36H88.8962V37H89.8962ZM89.8962 45H88.8962V46H89.8962V45ZM95.2296 45H96.2296V44H95.2296V45ZM95.2296 47.6667V48.6667H96.2296V47.6667H95.2296ZM81.8962 42.3333V43.3333H82.8962V42.3333H81.8962ZM79.2296 42.3333H78.2296V43.3333H79.2296V42.3333ZM79.2296 29V28H78.2296V29H79.2296ZM81.8962 29H82.8962V28H81.8962V29ZM82.8962 18.3333V15.6667H80.8962V18.3333H82.8962ZM81.8962 16.6667H84.5629V14.6667H81.8962V16.6667ZM83.5629 15.6667V18.3333H85.5629V15.6667H83.5629ZM84.5629 17.3333H81.8962V19.3333H84.5629V17.3333ZM66.8962 26.3333V23.6667H64.8962V26.3333H66.8962ZM65.8962 24.6667H68.5629V22.6667H65.8962V24.6667ZM69.5629 23.6667V21H67.5629V23.6667H69.5629ZM69.5629 21V18.3333H67.5629V21H69.5629ZM68.5629 19.3333H71.2296V17.3333H68.5629V19.3333ZM70.2296 18.3333V21H72.2296V18.3333H70.2296ZM70.2296 21V23.6667H72.2296V21H70.2296ZM71.2296 24.6667H73.8962V22.6667H71.2296V24.6667ZM73.8962 24.6667H76.5629V22.6667H73.8962V24.6667ZM76.5629 24.6667H79.2296V22.6667H76.5629V24.6667ZM79.2296 24.6667H81.8962V22.6667H79.2296V24.6667ZM81.8962 24.6667H84.5629V22.6667H81.8962V24.6667ZM85.5629 23.6667V21H83.5629V23.6667H85.5629ZM85.5629 21V18.3333H83.5629V21H85.5629ZM84.5629 19.3333H87.2296V17.3333H84.5629V19.3333ZM86.2296 18.3333V21H88.2296V18.3333H86.2296ZM86.2296 21V23.6667H88.2296V21H86.2296ZM87.2296 24.6667H89.8962V22.6667H87.2296V24.6667ZM89.8962 24.6667H92.5629V22.6667H89.8962V24.6667ZM92.5629 24.6667H95.2296V22.6667H92.5629V24.6667ZM94.2296 23.6667V26.3333H96.2296V23.6667H94.2296ZM95.2296 25.3333H92.5629V27.3333H95.2296V25.3333ZM92.5629 25.3333H89.8962V27.3333H92.5629V25.3333ZM89.8962 25.3333H87.2296V27.3333H89.8962V25.3333ZM87.2296 25.3333H84.5629V27.3333H87.2296V25.3333ZM84.5629 25.3333H81.8962V27.3333H84.5629V25.3333ZM81.8962 25.3333H79.2296V27.3333H81.8962V25.3333ZM79.2296 25.3333H76.5629V27.3333H79.2296V25.3333ZM76.5629 25.3333H73.8962V27.3333H76.5629V25.3333ZM73.8962 25.3333H71.2296V27.3333H73.8962V25.3333ZM70.2296 26.3333V29H72.2296V26.3333H70.2296ZM70.2296 29V31.6667H72.2296V29H70.2296ZM70.2296 31.6667V34.3333H72.2296V31.6667H70.2296ZM71.2296 35.3333H73.8962V33.3333H71.2296V35.3333ZM72.8962 34.3333V37H74.8962V34.3333H72.8962ZM73.8962 36H71.2296V38H73.8962V36ZM70.2296 37V39.6667H72.2296V37H70.2296ZM70.2296 39.6667V42.3333H72.2296V39.6667H70.2296ZM70.2296 42.3333V45H72.2296V42.3333H70.2296ZM70.2296 45V47.6667H72.2296V45H70.2296ZM71.2296 46.6667H68.5629V48.6667H71.2296V46.6667ZM68.5629 46.6667H65.8962V48.6667H68.5629V46.6667ZM66.8962 47.6667V45H64.8962V47.6667H66.8962ZM65.8962 46H68.5629V44H65.8962V46ZM69.5629 45V42.3333H67.5629V45H69.5629ZM69.5629 42.3333V39.6667H67.5629V42.3333H69.5629ZM68.5629 38.6667H65.8962V40.6667H68.5629V38.6667ZM66.8962 39.6667V37H64.8962V39.6667H66.8962ZM65.8962 38H68.5629V36H65.8962V38ZM69.5629 37V34.3333H67.5629V37H69.5629ZM69.5629 34.3333V31.6667H67.5629V34.3333H69.5629ZM69.5629 31.6667V29H67.5629V31.6667H69.5629ZM69.5629 29V26.3333H67.5629V29H69.5629ZM68.5629 25.3333H65.8962V27.3333H68.5629V25.3333ZM74.8962 47.6667V45H72.8962V47.6667H74.8962ZM73.8962 46H76.5629V44H73.8962V46ZM76.5629 46H79.2296V44H76.5629V46ZM79.2296 46H81.8962V44H79.2296V46ZM81.8962 46H84.5629V44H81.8962V46ZM84.5629 46H87.2296V44H84.5629V46ZM88.2296 45V42.3333H86.2296V45H88.2296ZM88.2296 42.3333V39.6667H86.2296V42.3333H88.2296ZM88.2296 39.6667V37H86.2296V39.6667H88.2296ZM87.2296 38H89.8962V36H87.2296V38ZM90.8962 37V34.3333H88.8962V37H90.8962ZM90.8962 34.3333V31.6667H88.8962V34.3333H90.8962ZM90.8962 31.6667V29H88.8962V31.6667H90.8962ZM89.8962 30H92.5629V28H89.8962V30ZM91.5629 29V31.6667H93.5629V29H91.5629ZM91.5629 31.6667V34.3333H93.5629V31.6667H91.5629ZM91.5629 34.3333V37H93.5629V34.3333H91.5629ZM92.5629 36H89.8962V38H92.5629V36ZM88.8962 37V39.6667H90.8962V37H88.8962ZM88.8962 39.6667V42.3333H90.8962V39.6667H88.8962ZM88.8962 42.3333V45H90.8962V42.3333H88.8962ZM89.8962 46H92.5629V44H89.8962V46ZM92.5629 46H95.2296V44H92.5629V46ZM94.2296 45V47.6667H96.2296V45H94.2296ZM95.2296 46.6667H92.5629V48.6667H95.2296V46.6667ZM92.5629 46.6667H89.8962V48.6667H92.5629V46.6667ZM89.8962 46.6667H87.2296V48.6667H89.8962V46.6667ZM87.2296 46.6667H84.5629V48.6667H87.2296V46.6667ZM84.5629 46.6667H81.8962V48.6667H84.5629V46.6667ZM81.8962 46.6667H79.2296V48.6667H81.8962V46.6667ZM79.2296 46.6667H76.5629V48.6667H79.2296V46.6667ZM76.5629 46.6667H73.8962V48.6667H76.5629V46.6667ZM80.8962 31.6667V34.3333H82.8962V31.6667H80.8962ZM80.8962 34.3333V37H82.8962V34.3333H80.8962ZM80.8962 37V39.6667H82.8962V37H80.8962ZM80.8962 39.6667V42.3333H82.8962V39.6667H80.8962ZM81.8962 41.3333H79.2296V43.3333H81.8962V41.3333ZM80.2296 42.3333V39.6667H78.2296V42.3333H80.2296ZM80.2296 39.6667V37H78.2296V39.6667H80.2296ZM80.2296 37V34.3333H78.2296V37H80.2296ZM80.2296 34.3333V31.6667H78.2296V34.3333H80.2296ZM80.2296 31.6667V29H78.2296V31.6667H80.2296ZM79.2296 30H81.8962V28H79.2296V30ZM80.8962 29V31.6667H82.8962V29H80.8962ZM122.792 18.3333H121.792V19.3333H122.792V18.3333ZM122.792 15.6667V14.6667H121.792V15.6667H122.792ZM125.459 15.6667H126.459V14.6667H125.459V15.6667ZM125.459 18.3333V19.3333H126.459V18.3333H125.459ZM106.792 26.3333H105.792V27.3333H106.792V26.3333ZM106.792 23.6667V22.6667H105.792V23.6667H106.792ZM109.459 23.6667V24.6667H110.459V23.6667H109.459ZM109.459 18.3333V17.3333H108.459V18.3333H109.459ZM112.126 18.3333H113.126V17.3333H112.126V18.3333ZM112.126 23.6667H111.126V24.6667H112.126V23.6667ZM125.459 23.6667V24.6667H126.459V23.6667H125.459ZM125.459 18.3333V17.3333H124.459V18.3333H125.459ZM128.126 18.3333H129.126V17.3333H128.126V18.3333ZM128.126 23.6667H127.126V24.6667H128.126V23.6667ZM136.126 23.6667H137.126V22.6667H136.126V23.6667ZM136.126 26.3333V27.3333H137.126V26.3333H136.126ZM112.126 26.3333V25.3333H111.126V26.3333H112.126ZM112.126 34.3333H111.126V35.3333H112.126V34.3333ZM114.792 34.3333H115.792V33.3333H114.792V34.3333ZM114.792 37V38H115.792V37H114.792ZM112.126 37V36H111.126V37H112.126ZM112.126 47.6667V48.6667H113.126V47.6667H112.126ZM106.792 47.6667H105.792V48.6667H106.792V47.6667ZM106.792 45V44H105.792V45H106.792ZM109.459 45V46H110.459V45H109.459ZM109.459 39.6667H110.459V38.6667H109.459V39.6667ZM106.792 39.6667H105.792V40.6667H106.792V39.6667ZM106.792 37V36H105.792V37H106.792ZM109.459 37V38H110.459V37H109.459ZM109.459 26.3333H110.459V25.3333H109.459V26.3333ZM114.792 47.6667H113.792V48.6667H114.792V47.6667ZM114.792 45V44H113.792V45H114.792ZM128.126 45V46H129.126V45H128.126ZM128.126 37V36H127.126V37H128.126ZM130.792 37V38H131.792V37H130.792ZM130.792 29V28H129.792V29H130.792ZM133.459 29H134.459V28H133.459V29ZM133.459 37V38H134.459V37H133.459ZM130.792 37V36H129.792V37H130.792ZM130.792 45H129.792V46H130.792V45ZM136.126 45H137.126V44H136.126V45ZM136.126 47.6667V48.6667H137.126V47.6667H136.126ZM122.792 42.3333V43.3333H123.792V42.3333H122.792ZM120.126 42.3333H119.126V43.3333H120.126V42.3333ZM120.126 29V28H119.126V29H120.126ZM122.792 29H123.792V28H122.792V29ZM123.792 18.3333V15.6667H121.792V18.3333H123.792ZM122.792 16.6667H125.459V14.6667H122.792V16.6667ZM124.459 15.6667V18.3333H126.459V15.6667H124.459ZM125.459 17.3333H122.792V19.3333H125.459V17.3333ZM107.792 26.3333V23.6667H105.792V26.3333H107.792ZM106.792 24.6667H109.459V22.6667H106.792V24.6667ZM110.459 23.6667V21H108.459V23.6667H110.459ZM110.459 21V18.3333H108.459V21H110.459ZM109.459 19.3333H112.126V17.3333H109.459V19.3333ZM111.126 18.3333V21H113.126V18.3333H111.126ZM111.126 21V23.6667H113.126V21H111.126ZM112.126 24.6667H114.792V22.6667H112.126V24.6667ZM114.792 24.6667H117.459V22.6667H114.792V24.6667ZM117.459 24.6667H120.126V22.6667H117.459V24.6667ZM120.126 24.6667H122.792V22.6667H120.126V24.6667ZM122.792 24.6667H125.459V22.6667H122.792V24.6667ZM126.459 23.6667V21H124.459V23.6667H126.459ZM126.459 21V18.3333H124.459V21H126.459ZM125.459 19.3333H128.126V17.3333H125.459V19.3333ZM127.126 18.3333V21H129.126V18.3333H127.126ZM127.126 21V23.6667H129.126V21H127.126ZM128.126 24.6667H130.792V22.6667H128.126V24.6667ZM130.792 24.6667H133.459V22.6667H130.792V24.6667ZM133.459 24.6667H136.126V22.6667H133.459V24.6667ZM135.126 23.6667V26.3333H137.126V23.6667H135.126ZM136.126 25.3333H133.459V27.3333H136.126V25.3333ZM133.459 25.3333H130.792V27.3333H133.459V25.3333ZM130.792 25.3333H128.126V27.3333H130.792V25.3333ZM128.126 25.3333H125.459V27.3333H128.126V25.3333ZM125.459 25.3333H122.792V27.3333H125.459V25.3333ZM122.792 25.3333H120.126V27.3333H122.792V25.3333ZM120.126 25.3333H117.459V27.3333H120.126V25.3333ZM117.459 25.3333H114.792V27.3333H117.459V25.3333ZM114.792 25.3333H112.126V27.3333H114.792V25.3333ZM111.126 26.3333V29H113.126V26.3333H111.126ZM111.126 29V31.6667H113.126V29H111.126ZM111.126 31.6667V34.3333H113.126V31.6667H111.126ZM112.126 35.3333H114.792V33.3333H112.126V35.3333ZM113.792 34.3333V37H115.792V34.3333H113.792ZM114.792 36H112.126V38H114.792V36ZM111.126 37V39.6667H113.126V37H111.126ZM111.126 39.6667V42.3333H113.126V39.6667H111.126ZM111.126 42.3333V45H113.126V42.3333H111.126ZM111.126 45V47.6667H113.126V45H111.126ZM112.126 46.6667H109.459V48.6667H112.126V46.6667ZM109.459 46.6667H106.792V48.6667H109.459V46.6667ZM107.792 47.6667V45H105.792V47.6667H107.792ZM106.792 46H109.459V44H106.792V46ZM110.459 45V42.3333H108.459V45H110.459ZM110.459 42.3333V39.6667H108.459V42.3333H110.459ZM109.459 38.6667H106.792V40.6667H109.459V38.6667ZM107.792 39.6667V37H105.792V39.6667H107.792ZM106.792 38H109.459V36H106.792V38ZM110.459 37V34.3333H108.459V37H110.459ZM110.459 34.3333V31.6667H108.459V34.3333H110.459ZM110.459 31.6667V29H108.459V31.6667H110.459ZM110.459 29V26.3333H108.459V29H110.459ZM109.459 25.3333H106.792V27.3333H109.459V25.3333ZM115.792 47.6667V45H113.792V47.6667H115.792ZM114.792 46H117.459V44H114.792V46ZM117.459 46H120.126V44H117.459V46ZM120.126 46H122.792V44H120.126V46ZM122.792 46H125.459V44H122.792V46ZM125.459 46H128.126V44H125.459V46ZM129.126 45V42.3333H127.126V45H129.126ZM129.126 42.3333V39.6667H127.126V42.3333H129.126ZM129.126 39.6667V37H127.126V39.6667H129.126ZM128.126 38H130.792V36H128.126V38ZM131.792 37V34.3333H129.792V37H131.792ZM131.792 34.3333V31.6667H129.792V34.3333H131.792ZM131.792 31.6667V29H129.792V31.6667H131.792ZM130.792 30H133.459V28H130.792V30ZM132.459 29V31.6667H134.459V29H132.459ZM132.459 31.6667V34.3333H134.459V31.6667H132.459ZM132.459 34.3333V37H134.459V34.3333H132.459ZM133.459 36H130.792V38H133.459V36ZM129.792 37V39.6667H131.792V37H129.792ZM129.792 39.6667V42.3333H131.792V39.6667H129.792ZM129.792 42.3333V45H131.792V42.3333H129.792ZM130.792 46H133.459V44H130.792V46ZM133.459 46H136.126V44H133.459V46ZM135.126 45V47.6667H137.126V45H135.126ZM136.126 46.6667H133.459V48.6667H136.126V46.6667ZM133.459 46.6667H130.792V48.6667H133.459V46.6667ZM130.792 46.6667H128.126V48.6667H130.792V46.6667ZM128.126 46.6667H125.459V48.6667H128.126V46.6667ZM125.459 46.6667H122.792V48.6667H125.459V46.6667ZM122.792 46.6667H120.126V48.6667H122.792V46.6667ZM120.126 46.6667H117.459V48.6667H120.126V46.6667ZM117.459 46.6667H114.792V48.6667H117.459V46.6667ZM121.792 31.6667V34.3333H123.792V31.6667H121.792ZM121.792 34.3333V37H123.792V34.3333H121.792ZM121.792 37V39.6667H123.792V37H121.792ZM121.792 39.6667V42.3333H123.792V39.6667H121.792ZM122.792 41.3333H120.126V43.3333H122.792V41.3333ZM121.126 42.3333V39.6667H119.126V42.3333H121.126ZM121.126 39.6667V37H119.126V39.6667H121.126ZM121.126 37V34.3333H119.126V37H121.126ZM121.126 34.3333V31.6667H119.126V34.3333H121.126ZM121.126 31.6667V29H119.126V31.6667H121.126ZM120.126 30H122.792V28H120.126V30ZM121.792 29V31.6667H123.792V29H121.792ZM153.022 26.3333H152.022V27.3333H153.022V26.3333ZM153.022 23.6667V22.6667H152.022V23.6667H153.022ZM171.689 23.6667H172.689V22.6667H171.689V23.6667ZM171.689 26.3333V27.3333H172.689V26.3333H171.689ZM163.689 26.3333V25.3333H162.689V26.3333H163.689ZM163.689 31.6667H162.689V32.6667H163.689V31.6667ZM169.022 31.6667H170.022V30.6667H169.022V31.6667ZM169.022 34.3333V35.3333H170.022V34.3333H169.022ZM163.689 34.3333V33.3333H162.689V34.3333H163.689ZM163.689 39.6667H162.689V40.6667H163.689V39.6667ZM171.689 39.6667H172.689V38.6667H171.689V39.6667ZM171.689 42.3333V43.3333H172.689V42.3333H171.689ZM153.022 42.3333H152.022V43.3333H153.022V42.3333ZM153.022 39.6667V38.6667H152.022V39.6667H153.022ZM161.022 39.6667V40.6667H162.022V39.6667H161.022ZM161.022 34.3333H162.022V33.3333H161.022V34.3333ZM155.689 34.3333H154.689V35.3333H155.689V34.3333ZM155.689 31.6667V30.6667H154.689V31.6667H155.689ZM161.022 31.6667V32.6667H162.022V31.6667H161.022ZM161.022 26.3333H162.022V25.3333H161.022V26.3333ZM177.022 18.3333H178.022V17.3333H177.022V18.3333ZM177.022 47.6667V48.6667H178.022V47.6667H177.022ZM147.689 47.6667H146.689V48.6667H147.689V47.6667ZM147.689 18.3333V17.3333H146.689V18.3333H147.689ZM150.355 21V20H149.355V21H150.355ZM150.355 45H149.355V46H150.355V45ZM174.355 45V46H175.355V45H174.355ZM174.355 21H175.355V20H174.355V21ZM169.022 34.3333V33.3333H168.022V34.3333H169.022ZM171.689 34.3333H172.689V33.3333H171.689V34.3333ZM171.689 37V38H172.689V37H171.689ZM169.022 37H168.022V38H169.022V37ZM154.022 26.3333V23.6667H152.022V26.3333H154.022ZM153.022 24.6667H155.689V22.6667H153.022V24.6667ZM155.689 24.6667H158.355V22.6667H155.689V24.6667ZM158.355 24.6667H161.022V22.6667H158.355V24.6667ZM161.022 24.6667H163.689V22.6667H161.022V24.6667ZM163.689 24.6667H166.355V22.6667H163.689V24.6667ZM166.355 24.6667H169.022V22.6667H166.355V24.6667ZM169.022 24.6667H171.689V22.6667H169.022V24.6667ZM170.689 23.6667V26.3333H172.689V23.6667H170.689ZM171.689 25.3333H169.022V27.3333H171.689V25.3333ZM169.022 25.3333H166.355V27.3333H169.022V25.3333ZM166.355 25.3333H163.689V27.3333H166.355V25.3333ZM162.689 26.3333V29H164.689V26.3333H162.689ZM162.689 29V31.6667H164.689V29H162.689ZM163.689 32.6667H166.355V30.6667H163.689V32.6667ZM166.355 32.6667H169.022V30.6667H166.355V32.6667ZM168.022 31.6667V34.3333H170.022V31.6667H168.022ZM169.022 33.3333H166.355V35.3333H169.022V33.3333ZM166.355 33.3333H163.689V35.3333H166.355V33.3333ZM162.689 34.3333V37H164.689V34.3333H162.689ZM162.689 37V39.6667H164.689V37H162.689ZM163.689 40.6667H166.355V38.6667H163.689V40.6667ZM166.355 40.6667H169.022V38.6667H166.355V40.6667ZM169.022 40.6667H171.689V38.6667H169.022V40.6667ZM170.689 39.6667V42.3333H172.689V39.6667H170.689ZM171.689 41.3333H169.022V43.3333H171.689V41.3333ZM169.022 41.3333H166.355V43.3333H169.022V41.3333ZM166.355 41.3333H163.689V43.3333H166.355V41.3333ZM163.689 41.3333H161.022V43.3333H163.689V41.3333ZM161.022 41.3333H158.355V43.3333H161.022V41.3333ZM158.355 41.3333H155.689V43.3333H158.355V41.3333ZM155.689 41.3333H153.022V43.3333H155.689V41.3333ZM154.022 42.3333V39.6667H152.022V42.3333H154.022ZM153.022 40.6667H155.689V38.6667H153.022V40.6667ZM155.689 40.6667H158.355V38.6667H155.689V40.6667ZM158.355 40.6667H161.022V38.6667H158.355V40.6667ZM162.022 39.6667V37H160.022V39.6667H162.022ZM162.022 37V34.3333H160.022V37H162.022ZM161.022 33.3333H158.355V35.3333H161.022V33.3333ZM158.355 33.3333H155.689V35.3333H158.355V33.3333ZM156.689 34.3333V31.6667H154.689V34.3333H156.689ZM155.689 32.6667H158.355V30.6667H155.689V32.6667ZM158.355 32.6667H161.022V30.6667H158.355V32.6667ZM162.022 31.6667V29H160.022V31.6667H162.022ZM162.022 29V26.3333H160.022V29H162.022ZM161.022 25.3333H158.355V27.3333H161.022V25.3333ZM158.355 25.3333H155.689V27.3333H158.355V25.3333ZM155.689 25.3333H153.022V27.3333H155.689V25.3333ZM150.355 19.3333H153.022V17.3333H150.355V19.3333ZM153.022 19.3333H155.689V17.3333H153.022V19.3333ZM155.689 19.3333H158.355V17.3333H155.689V19.3333ZM158.355 19.3333H161.022V17.3333H158.355V19.3333ZM161.022 19.3333H163.689V17.3333H161.022V19.3333ZM163.689 19.3333H166.355V17.3333H163.689V19.3333ZM166.355 19.3333H169.022V17.3333H166.355V19.3333ZM169.022 19.3333H171.689V17.3333H169.022V19.3333ZM171.689 19.3333H174.355V17.3333H171.689V19.3333ZM174.355 19.3333H177.022V17.3333H174.355V19.3333ZM176.022 18.3333V21H178.022V18.3333H176.022ZM176.022 21V23.6667H178.022V21H176.022ZM176.022 23.6667V26.3333H178.022V23.6667H176.022ZM176.022 26.3333V29H178.022V26.3333H176.022ZM176.022 29V31.6667H178.022V29H176.022ZM176.022 31.6667V34.3333H178.022V31.6667H176.022ZM176.022 34.3333V37H178.022V34.3333H176.022ZM176.022 37V39.6667H178.022V37H176.022ZM176.022 39.6667V42.3333H178.022V39.6667H176.022ZM176.022 42.3333V45H178.022V42.3333H176.022ZM176.022 45V47.6667H178.022V45H176.022ZM177.022 46.6667H174.355V48.6667H177.022V46.6667ZM174.355 46.6667H171.689V48.6667H174.355V46.6667ZM171.689 46.6667H169.022V48.6667H171.689V46.6667ZM169.022 46.6667H166.355V48.6667H169.022V46.6667ZM166.355 46.6667H163.689V48.6667H166.355V46.6667ZM163.689 46.6667H161.022V48.6667H163.689V46.6667ZM161.022 46.6667H158.355V48.6667H161.022V46.6667ZM158.355 46.6667H155.689V48.6667H158.355V46.6667ZM155.689 46.6667H153.022V48.6667H155.689V46.6667ZM153.022 46.6667H150.355V48.6667H153.022V46.6667ZM150.355 46.6667H147.689V48.6667H150.355V46.6667ZM148.689 47.6667V45H146.689V47.6667H148.689ZM148.689 45V42.3333H146.689V45H148.689ZM148.689 42.3333V39.6667H146.689V42.3333H148.689ZM148.689 39.6667V37H146.689V39.6667H148.689ZM148.689 37V34.3333H146.689V37H148.689ZM148.689 34.3333V31.6667H146.689V34.3333H148.689ZM148.689 31.6667V29H146.689V31.6667H148.689ZM148.689 29V26.3333H146.689V29H148.689ZM148.689 26.3333V23.6667H146.689V26.3333H148.689ZM148.689 23.6667V21H146.689V23.6667H148.689ZM148.689 21V18.3333H146.689V21H148.689ZM147.689 19.3333H150.355V17.3333H147.689V19.3333ZM153.022 20H150.355V22H153.022V20ZM149.355 21V23.6667H151.355V21H149.355ZM149.355 23.6667V26.3333H151.355V23.6667H149.355ZM149.355 26.3333V29H151.355V26.3333H149.355ZM149.355 29V31.6667H151.355V29H149.355ZM149.355 31.6667V34.3333H151.355V31.6667H149.355ZM149.355 34.3333V37H151.355V34.3333H149.355ZM149.355 37V39.6667H151.355V37H149.355ZM149.355 39.6667V42.3333H151.355V39.6667H149.355ZM149.355 42.3333V45H151.355V42.3333H149.355ZM150.355 46H153.022V44H150.355V46ZM153.022 46H155.689V44H153.022V46ZM155.689 46H158.355V44H155.689V46ZM158.355 46H161.022V44H158.355V46ZM161.022 46H163.689V44H161.022V46ZM163.689 46H166.355V44H163.689V46ZM166.355 46H169.022V44H166.355V46ZM169.022 46H171.689V44H169.022V46ZM171.689 46H174.355V44H171.689V46ZM175.355 45V42.3333H173.355V45H175.355ZM175.355 42.3333V39.6667H173.355V42.3333H175.355ZM175.355 39.6667V37H173.355V39.6667H175.355ZM175.355 37V34.3333H173.355V37H175.355ZM175.355 34.3333V31.6667H173.355V34.3333H175.355ZM175.355 31.6667V29H173.355V31.6667H175.355ZM175.355 29V26.3333H173.355V29H175.355ZM175.355 26.3333V23.6667H173.355V26.3333H175.355ZM175.355 23.6667V21H173.355V23.6667H175.355ZM174.355 20H171.689V22H174.355V20ZM171.689 20H169.022V22H171.689V20ZM169.022 20H166.355V22H169.022V20ZM166.355 20H163.689V22H166.355V20ZM163.689 20H161.022V22H163.689V20ZM161.022 20H158.355V22H161.022V20ZM158.355 20H155.689V22H158.355V20ZM155.689 20H153.022V22H155.689V20ZM169.022 35.3333H171.689V33.3333H169.022V35.3333ZM170.689 34.3333V37H172.689V34.3333H170.689ZM171.689 36H169.022V38H171.689V36ZM170.022 37V34.3333H168.022V37H170.022Z"
        fill="#46230D" />
    <defs>
        <filter id="filter0_d_90_11" x="0" y="0" width="204" height="71" filterUnits="userSpaceOnUse"
            color-interpolation-filters="sRGB">
            <feFlood flood-opacity="0" result="BackgroundImageFix" />
            <feColorMatrix in="SourceAlpha" type="matrix" values="0 0 0 0 0 0 0 0 0 0 0 0 0 0 0 0 0 0 127 0"
                result="hardAlpha" />
            <feOffset dy="4" />
            <feGaussianBlur stdDeviation="2" />
            <feComposite in2="hardAlpha" operator="out" />
            <feColorMatrix type="matrix" values="0 0 0 0 0 0 0 0 0 0 0 0 0 0 0 0 0 0 0.25 0" />
            <feBlend mode="normal" in2="BackgroundImageFix" result="effect1_dropShadow_90_11" />
            <feBlend mode="normal" in="SourceGraphic" in2="effect1_dropShadow_90_11" result="shape" />
        </filter>
    </defs>
</svg>